PathFileType	4	(X/Y/Z)	T1_P1_Vision_NoMovement_1_0-649.trc
DataRate	CameraRate	NumFrames	NumMarkers	Units	OrigDataRate	OrigDataStartFrame	OrigNumFrames
60	60	6	27	m	60	567	649
Frame#	Time	RHip			RKnee			RAnkle			RBigToe			RSmallToe			RHeel			LHip			LKnee			LAnkle			LBigToe			LSmallToe			LHeel			Neck			Head			Nose			RShoulder			RElbow			RWrist			RThumb			RIndex			RPinky			LShoulder			LElbow			LWrist			LThumb			LIndex			LPinky		
		X1	Y1	Z1	X2	Y2	Z2	X3	Y3	Z3	X4	Y4	Z4	X5	Y5	Z5	X6	Y6	Z6	X7	Y7	Z7	X8	Y8	Z8	X9	Y9	Z9	X10	Y10	Z10	X11	Y11	Z11	X12	Y12	Z12	X13	Y13	Z13	X14	Y14	Z14	X15	Y15	Z15	X16	Y16	Z16	X17	Y17	Z17	X18	Y18	Z18	X19	Y19	Z19	X20	Y20	Z20	X21	Y21	Z21	X22	Y22	Z22	X23	Y23	Z23	X24	Y24	Z24	X25	Y25	Z25	X26	Y26	Z26	X27	Y27	Z27
568	9.466666666666669	-66.23502258325422	3788.418254779367	-545.7727598396482	284.5217528750443	3975.7872176603964	-526.5364118069612	641.5566314996779	4155.420581444008	-532.58263042767	690.1056051391116	4011.480408696168	-457.2562438487088	686.8871674161788	3966.749750667656	-498.2762925477004	677.0741086313374	4185.873067469173	-533.6645836582584	-105.70778936639428	3903.527867920419	-363.320404856176	241.16046008904243	4004.6132921820995	-370.410822988013	623.0258655316343	4254.462821923191	-456.2141888016844	666.1044759661695	3994.7950814416117	-350.5800175317716	674.0931140717329	4132.1459877483885	-345.8840434878353	674.4797884044608	4324.211817695235	-499.91047109603574	-679.5380261068944	3685.4906683101103	-497.7581437827788	-916.5081936385056	3539.646945712593	-431.6052400345337	-784.3139512506406	3559.282576646073	-404.9173358029114	-558.8062764328531	3652.235323929248	-644.4374638958138	-283.85385247431986	3750.9016191476135	-705.2373490727759	-29.31881534933664	3678.0935285425603	-601.407465998627	85.48633182592283	3760.840377081491	-556.145260126945	108.67908381966873	3773.1045824122034	-567.7548086311856	101.34922287645024	3763.976135492897	-590.7066074425857	-612.3817777926185	3774.6222775622637	-371.3588935796036	-391.9073967476917	3981.6270031696495	-346.48000414646367	-127.23391046268074	3939.8903228673066	-242.8210417934738	15.891718164085397	3897.7651926744898	-275.64763107364934	21.446427261151694	3902.0377009401036	-213.44008642067183	-1.5864114231061457	3976.641272192703	-217.39716106190446
569	9.483333333333333	-66.26073959225067	3788.9865701614053	-545.9069734983843	284.6076985278637	3975.802654744205	-526.5296978296619	643.4263679506053	4156.322226947823	-532.1865629419326	693.6340192698932	4018.337770789479	-460.7896773784825	688.046637261745	3971.1574035715676	-500.5674096972185	676.7171381715839	4181.130727281016	-531.951581770882	-105.6251454638396	3903.5160336939475	-363.25965293070215	240.6896733504835	4004.3117945686618	-370.4321948494307	622.7023048531767	4254.099732470198	-456.6606936836604	667.6924174816534	3996.147162560502	-350.44836421718054	675.495206060521	4142.901373735026	-347.8328105881533	673.3364940144655	4323.13379135336	-500.05886888558786	-679.5456818730818	3685.485620263895	-497.75948627390176	-916.5182382893008	3539.677061564964	-431.6191336480956	-783.0734893103428	3553.4771476307847	-403.6222525285887	-558.7662814406676	3652.2989464929065	-644.4370446819702	-283.527632458579	3751.066726622833	-705.2968028712512	-30.791303651158046	3677.1210316444794	-600.9316390639912	84.86086149055912	3758.302391524281	-555.2923441479246	107.99567007758512	3772.5617999166316	-567.597799746348	100.5438517121987	3762.6194774308024	-590.1952708832379	-612.5767305372385	3774.4095170693136	-371.2680913399562	-391.92015376534107	3981.5912708381	-346.4758097915209	-127.26048410927703	3939.7130609514206	-242.28953535935585	16.030328057951742	3899.04874777869	-276.9532922490852	21.49569412959013	3898.691843073277	-213.0393361198524	-0.6778662868761587	3976.8846540612867	-217.27390480406527
570	9.5	-66.29860984807776	3789.3859259780666	-545.9831693902162	284.6574974193172	3975.925667326691	-526.5777278423767	644.1685999298521	4153.982850495744	-530.7112232514712	697.5382217799182	4029.055906513476	-465.6498569292685	688.7048396008367	3976.0999359603657	-502.5427433358855	675.3677532090207	4176.834062453372	-529.367376560196	-105.67568908808228	3903.4196768600486	-363.1292485578817	239.95776901618385	4003.8738330951637	-370.47150009493805	623.4015423872673	4254.1844936575235	-456.80517545706556	668.3791455903429	3996.8499553797783	-350.3710833884266	678.1690058577938	4151.915477621287	-349.54064941927516	671.85332919625	4318.850705615485	-498.5570812751299	-679.5575552347541	3685.5095120495403	-497.7753521762454	-916.5137699922532	3539.6763882698997	-431.60827682294286	-783.2921142831533	3553.7893135726126	-403.73927039290237	-558.602815066513	3652.426053543425	-644.6067589873279	-283.94732441659716	3750.671241355757	-705.0929452590899	-32.391345193476	3676.054282127083	-600.4279560778049	84.11374158158311	3760.653088355676	-555.7056274992709	108.49011531278988	3772.600030160025	-567.5228574044058	100.06060971674889	3759.6014763108187	-589.1316245492937	-613.0658053988191	3774.03692661865	-371.1448287915434	-391.93923870055204	3981.5652099588096	-346.50051152228775	-127.23449226870223	3939.758603295845	-242.24437110971627	16.007716081169477	3899.3811514991075	-276.7697051885891	21.544375965695657	3896.721408646126	-212.66822525851313	-0.19874158660404342	3977.0502350101265	-217.19586078031114
571	9.516666666666667	-66.33675184548153	3789.3402535410005	-545.9564706435563	284.4452370610717	3975.814836537379	-526.5108543977472	642.765994103588	4146.256593411305	-527.9473939572617	700.7884127422543	4040.426573850822	-469.30759531832024	688.8056273505169	3978.479424319104	-502.84694208346696	674.3791442733834	4174.570643819804	-527.932505650326	-105.87948067433001	3903.2897838966474	-363.03153106177155	239.59832798499997	4003.650841221348	-370.488927388149	624.9013590849707	4254.71709547664	-457.0114847374403	668.4164614259178	3996.951735693309	-350.2657187875633	680.467510270989	4153.522449778958	-349.8718601763262	670.84573058573	4312.727461270344	-496.2091369682353	-679.5668423240916	3685.5600349835067	-497.80457646920536	-916.4831127547047	3539.6204546488057	-431.5562014169418	-784.6422207531515	3560.245834361827	-405.2444066882484	-558.1514250847495	3652.6284191876675	-645.1465849508204	-284.02576847296893	3750.2717912465578	-704.8579336290394	-32.65241904548503	3675.6370830477595	-600.2436326159009	83.87985956706191	3767.944182180496	-557.5271097332229	109.5743444569153	3773.176272054594	-567.5879217021355	100.0880322508829	3755.793750534617	-587.6547705576653	-613.7561040513217	3773.5983319550937	-371.0202864773948	-391.97278571922516	3981.549949543071	-346.54749060487	-127.20244278174425	3939.8851860956197	-242.35529807991378	15.631651484832346	3895.4952387710573	-273.2014885057904	21.621894303560893	3898.300527260176	-212.87009836896198	-0.6511316807332297	3976.970105475618	-217.21776086923344
572	9.533333333333331	-66.3654183686623	3788.879986192939	-545.8494916039654	283.72976241447805	3975.2457226166034	-526.2311438098345	640.0329454441443	4135.472061649826	-525.1654036042771	703.0477134783957	4048.588124608165	-471.151421621259	689.3060355346099	3979.1852050996035	-503.54018120877447	673.6876477846362	4171.3861233444895	-527.202461027166	-106.56166261233625	3902.9082771461826	-362.8838798689676	239.90729617944217	4003.7708988470217	-370.4508383655735	625.7699665560096	4255.312087793909	-457.19293022206347	668.81208385678	3997.0998360118865	-350.24208977742853	681.3961259242855	4147.111332273718	-348.58617077223903	670.9162505289571	4309.522254677132	-494.49612773766364	-679.5611047270072	3685.613465715522	-497.8320947130512	-916.4461642455037	3539.550690535175	-431.49111278335226	-785.873248156792	3568.7124504829576	-407.1465073042702	-557.4642680647438	3652.8263646234054	-645.9400579697094	-283.4824393903656	3750.0851635844956	-704.6837563480007	-31.147522620014456	3676.135047967331	-600.492367209014	84.46199392609235	3775.597929192245	-559.6112371788233	110.30722246086694	3773.9381501408834	-567.8220133072484	101.03862609579903	3754.6041550890377	-586.7346674021335	-614.1173650575844	3773.4687751653005	-371.00436432772636	-391.9748128055829	3981.5551916066806	-346.60696383169807	-127.17742984980529	3940.013903942683	-242.44980749219678	15.038028476315976	3888.6684357694794	-267.5115000520321	21.692702666827497	3899.3879175145676	-213.00224824542107	-1.3633133672564914	3976.844270420022	-217.26378306065703
573	9.55	-66.37542069287487	3788.345040070348	-545.7389574220058	282.7348343480082	3974.43207058997	-525.8309077438576	637.1762039405555	4126.888447331432	-524.0169417471374	703.4679074985248	4049.0579687924	-470.9339814110675	689.8190169020596	3979.2655847082624	-505.6672047514459	673.1525598669851	4167.159003666344	-526.4621086439682	-107.30574721368353	3902.5123755146456	-362.7558410342302	240.07174384601188	4003.817284607291	-370.4247077234535	625.0944977696972	4256.321650135701	-457.42639389011566	669.7052294701981	3997.4442906480413	-350.62774191590285	680.5516363770039	4136.669515197296	-346.45059072882776	671.5956430778369	4312.008839458716	-494.1363639883176	-679.541429568654	3685.6434310305576	-497.84080762095124	-916.4372566186065	3539.5388825371833	-431.4620111345671	-785.4775508979678	3572.96741403145	-407.9904358801021	-557.093234405475	3652.8426135795253	-646.3944313088481	-283.5067984758119	3749.7365091491447	-704.4620736785087	-29.45485260251379	3676.941473311432	-600.9050009824706	85.29704666005979	3779.032152643149	-560.6580642281843	110.788093956822	3774.659103835925	-568.1670110315023	102.14809956391338	3756.999485816934	-587.1284843547746	-613.773001846695	3773.881898550753	-371.15681490111206	-391.800957140972	3981.6259114888776	-346.6659871820477	-127.14821249569684	3940.1099463602095	-242.49318244089204	14.53641747803602	3883.295674044489	-262.777598707391	21.68020228187399	3895.7273903194346	-212.2057550136837	-1.359940968363696	3976.9245298591177	-217.2341498828722
